<mxfile host="app.diagrams.net" agent="Mozilla/5.0 (Windows NT 10.0; Win64; x64) AppleWebKit/537.36 (KHTML, like Gecko) Chrome/140.0.0.0 Safari/537.36" version="28.2.0">
  <diagram name="Page-1" id="V-OuN2kqWWdZxSK4ZvOV">
    <mxGraphModel dx="809" dy="438" grid="1" gridSize="10" guides="1" tooltips="1" connect="1" arrows="1" fold="1" page="1" pageScale="1" pageWidth="850" pageHeight="1100" math="0" shadow="0">
      <root>
        <mxCell id="0" />
        <mxCell id="1" parent="0" />
        <mxCell id="abNxcvN-tdBCpLds650j-3" value="" style="edgeStyle=orthogonalEdgeStyle;rounded=0;orthogonalLoop=1;jettySize=auto;html=1;" edge="1" parent="1" source="abNxcvN-tdBCpLds650j-1" target="abNxcvN-tdBCpLds650j-2">
          <mxGeometry relative="1" as="geometry" />
        </mxCell>
        <mxCell id="abNxcvN-tdBCpLds650j-10" value="" style="edgeStyle=orthogonalEdgeStyle;rounded=0;orthogonalLoop=1;jettySize=auto;html=1;" edge="1" parent="1" source="abNxcvN-tdBCpLds650j-1" target="abNxcvN-tdBCpLds650j-8">
          <mxGeometry relative="1" as="geometry" />
        </mxCell>
        <mxCell id="abNxcvN-tdBCpLds650j-31" value="" style="edgeStyle=orthogonalEdgeStyle;rounded=0;orthogonalLoop=1;jettySize=auto;html=1;" edge="1" parent="1">
          <mxGeometry relative="1" as="geometry">
            <mxPoint x="340" y="250" as="sourcePoint" />
            <mxPoint x="320" y="430" as="targetPoint" />
            <Array as="points">
              <mxPoint x="280" y="250" />
              <mxPoint x="280" y="430" />
            </Array>
          </mxGeometry>
        </mxCell>
        <mxCell id="abNxcvN-tdBCpLds650j-54" value="" style="edgeStyle=orthogonalEdgeStyle;rounded=0;orthogonalLoop=1;jettySize=auto;html=1;entryX=0.5;entryY=0;entryDx=0;entryDy=0;" edge="1" parent="1" source="abNxcvN-tdBCpLds650j-1" target="abNxcvN-tdBCpLds650j-51">
          <mxGeometry relative="1" as="geometry">
            <mxPoint x="295" y="220" as="targetPoint" />
          </mxGeometry>
        </mxCell>
        <mxCell id="abNxcvN-tdBCpLds650j-1" value="User" style="shape=umlActor;verticalLabelPosition=bottom;verticalAlign=top;html=1;outlineConnect=0;" vertex="1" parent="1">
          <mxGeometry x="350" y="190" width="30" height="60" as="geometry" />
        </mxCell>
        <mxCell id="abNxcvN-tdBCpLds650j-2" value="" style="shape=waypoint;sketch=0;size=6;pointerEvents=1;points=[];fillColor=default;resizable=0;rotatable=0;perimeter=centerPerimeter;snapToPoint=1;verticalAlign=top;" vertex="1" parent="1">
          <mxGeometry x="465" y="210" width="20" height="20" as="geometry" />
        </mxCell>
        <mxCell id="abNxcvN-tdBCpLds650j-4" value="Ресторан" style="rounded=1;whiteSpace=wrap;html=1;" vertex="1" parent="1">
          <mxGeometry x="485" y="205" width="75" height="30" as="geometry" />
        </mxCell>
        <mxCell id="abNxcvN-tdBCpLds650j-5" value="Ресторан" style="rounded=1;whiteSpace=wrap;html=1;" vertex="1" parent="1">
          <mxGeometry x="490" y="210" width="75" height="30" as="geometry" />
        </mxCell>
        <mxCell id="abNxcvN-tdBCpLds650j-6" value="Ресторан" style="rounded=1;whiteSpace=wrap;html=1;" vertex="1" parent="1">
          <mxGeometry x="490" y="210" width="75" height="30" as="geometry" />
        </mxCell>
        <mxCell id="abNxcvN-tdBCpLds650j-7" value="Рестораны" style="rounded=1;whiteSpace=wrap;html=1;" vertex="1" parent="1">
          <mxGeometry x="490" y="220" width="75" height="30" as="geometry" />
        </mxCell>
        <mxCell id="abNxcvN-tdBCpLds650j-25" value="" style="edgeStyle=orthogonalEdgeStyle;rounded=0;orthogonalLoop=1;jettySize=auto;html=1;entryX=0.374;entryY=0.781;entryDx=0;entryDy=0;entryPerimeter=0;" edge="1" parent="1" source="abNxcvN-tdBCpLds650j-8" target="abNxcvN-tdBCpLds650j-20">
          <mxGeometry relative="1" as="geometry">
            <Array as="points">
              <mxPoint x="480" y="325" />
              <mxPoint x="480" y="260" />
            </Array>
          </mxGeometry>
        </mxCell>
        <mxCell id="abNxcvN-tdBCpLds650j-8" value="Корзина" style="rounded=1;whiteSpace=wrap;html=1;" vertex="1" parent="1">
          <mxGeometry x="325" y="310" width="80" height="30" as="geometry" />
        </mxCell>
        <mxCell id="abNxcvN-tdBCpLds650j-52" value="" style="edgeStyle=orthogonalEdgeStyle;rounded=0;orthogonalLoop=1;jettySize=auto;html=1;" edge="1" parent="1" source="abNxcvN-tdBCpLds650j-11" target="abNxcvN-tdBCpLds650j-29">
          <mxGeometry relative="1" as="geometry" />
        </mxCell>
        <mxCell id="abNxcvN-tdBCpLds650j-11" value="Оплата" style="rounded=1;whiteSpace=wrap;html=1;" vertex="1" parent="1">
          <mxGeometry x="325" y="370" width="85" height="30" as="geometry" />
        </mxCell>
        <mxCell id="abNxcvN-tdBCpLds650j-27" value="" style="edgeStyle=orthogonalEdgeStyle;rounded=0;orthogonalLoop=1;jettySize=auto;html=1;entryX=1;entryY=0.25;entryDx=0;entryDy=0;" edge="1" parent="1" source="abNxcvN-tdBCpLds650j-20" target="abNxcvN-tdBCpLds650j-11">
          <mxGeometry relative="1" as="geometry">
            <mxPoint x="490" y="380" as="targetPoint" />
            <Array as="points">
              <mxPoint x="490" y="377" />
            </Array>
          </mxGeometry>
        </mxCell>
        <mxCell id="abNxcvN-tdBCpLds650j-20" value="" style="shape=waypoint;sketch=0;size=6;pointerEvents=1;points=[];fillColor=none;resizable=0;rotatable=0;perimeter=centerPerimeter;snapToPoint=1;" vertex="1" parent="1">
          <mxGeometry x="480" y="250" width="20" height="20" as="geometry" />
        </mxCell>
        <mxCell id="abNxcvN-tdBCpLds650j-21" value="&amp;nbsp;menu 1&amp;nbsp;" style="rounded=0;whiteSpace=wrap;html=1;" vertex="1" parent="1">
          <mxGeometry x="520" y="260" width="70" height="10" as="geometry" />
        </mxCell>
        <mxCell id="abNxcvN-tdBCpLds650j-22" value="menu 2" style="rounded=0;whiteSpace=wrap;html=1;" vertex="1" parent="1">
          <mxGeometry x="520" y="270" width="70" height="10" as="geometry" />
        </mxCell>
        <mxCell id="abNxcvN-tdBCpLds650j-23" value="menu n" style="rounded=0;whiteSpace=wrap;html=1;" vertex="1" parent="1">
          <mxGeometry x="520" y="280" width="70" height="10" as="geometry" />
        </mxCell>
        <mxCell id="abNxcvN-tdBCpLds650j-34" value="" style="edgeStyle=orthogonalEdgeStyle;rounded=0;orthogonalLoop=1;jettySize=auto;html=1;" edge="1" parent="1" source="abNxcvN-tdBCpLds650j-29" target="abNxcvN-tdBCpLds650j-33">
          <mxGeometry relative="1" as="geometry" />
        </mxCell>
        <mxCell id="abNxcvN-tdBCpLds650j-50" value="" style="edgeStyle=orthogonalEdgeStyle;rounded=0;orthogonalLoop=1;jettySize=auto;html=1;" edge="1" parent="1" source="abNxcvN-tdBCpLds650j-29">
          <mxGeometry relative="1" as="geometry">
            <mxPoint x="160" y="390" as="targetPoint" />
          </mxGeometry>
        </mxCell>
        <mxCell id="abNxcvN-tdBCpLds650j-29" value="Заказ" style="rounded=1;whiteSpace=wrap;html=1;" vertex="1" parent="1">
          <mxGeometry x="325" y="430" width="85" height="30" as="geometry" />
        </mxCell>
        <mxCell id="abNxcvN-tdBCpLds650j-37" value="" style="edgeStyle=orthogonalEdgeStyle;rounded=0;orthogonalLoop=1;jettySize=auto;html=1;entryX=0;entryY=0.25;entryDx=0;entryDy=0;" edge="1" parent="1" source="abNxcvN-tdBCpLds650j-33" target="abNxcvN-tdBCpLds650j-35">
          <mxGeometry relative="1" as="geometry">
            <mxPoint x="562.5" y="365" as="targetPoint" />
            <Array as="points">
              <mxPoint x="560" y="357" />
            </Array>
          </mxGeometry>
        </mxCell>
        <mxCell id="abNxcvN-tdBCpLds650j-33" value="Доставка" style="rounded=1;whiteSpace=wrap;html=1;" vertex="1" parent="1">
          <mxGeometry x="520" y="430" width="85" height="30" as="geometry" />
        </mxCell>
        <mxCell id="abNxcvN-tdBCpLds650j-39" value="" style="edgeStyle=orthogonalEdgeStyle;rounded=0;orthogonalLoop=1;jettySize=auto;html=1;entryX=1;entryY=0.5;entryDx=0;entryDy=0;" edge="1" parent="1" source="abNxcvN-tdBCpLds650j-35" target="abNxcvN-tdBCpLds650j-33">
          <mxGeometry relative="1" as="geometry">
            <mxPoint x="587.5" y="365" as="targetPoint" />
            <Array as="points">
              <mxPoint x="710" y="445" />
            </Array>
          </mxGeometry>
        </mxCell>
        <mxCell id="abNxcvN-tdBCpLds650j-44" value="" style="edgeStyle=orthogonalEdgeStyle;rounded=0;orthogonalLoop=1;jettySize=auto;html=1;entryX=0.525;entryY=0.603;entryDx=0;entryDy=0;entryPerimeter=0;" edge="1" parent="1" source="abNxcvN-tdBCpLds650j-35" target="abNxcvN-tdBCpLds650j-42">
          <mxGeometry relative="1" as="geometry">
            <mxPoint x="712.5" y="285" as="targetPoint" />
            <Array as="points">
              <mxPoint x="710" y="240" />
            </Array>
          </mxGeometry>
        </mxCell>
        <mxCell id="abNxcvN-tdBCpLds650j-35" value="Курьер" style="rounded=1;whiteSpace=wrap;html=1;" vertex="1" parent="1">
          <mxGeometry x="670" y="350" width="85" height="30" as="geometry" />
        </mxCell>
        <mxCell id="abNxcvN-tdBCpLds650j-46" value="" style="edgeStyle=orthogonalEdgeStyle;rounded=0;orthogonalLoop=1;jettySize=auto;html=1;" edge="1" parent="1" source="abNxcvN-tdBCpLds650j-42" target="abNxcvN-tdBCpLds650j-45">
          <mxGeometry relative="1" as="geometry">
            <Array as="points">
              <mxPoint x="580" y="170" />
            </Array>
          </mxGeometry>
        </mxCell>
        <mxCell id="abNxcvN-tdBCpLds650j-42" value="" style="shape=waypoint;sketch=0;size=6;pointerEvents=1;points=[];fillColor=none;resizable=0;rotatable=0;perimeter=centerPerimeter;snapToPoint=1;" vertex="1" parent="1">
          <mxGeometry x="570" y="230" width="20" height="20" as="geometry" />
        </mxCell>
        <mxCell id="abNxcvN-tdBCpLds650j-45" value="" style="shape=waypoint;sketch=0;size=6;pointerEvents=1;points=[];fillColor=none;resizable=0;rotatable=0;perimeter=centerPerimeter;snapToPoint=1;" vertex="1" parent="1">
          <mxGeometry x="355" y="170" width="20" height="20" as="geometry" />
        </mxCell>
        <mxCell id="abNxcvN-tdBCpLds650j-56" value="" style="edgeStyle=orthogonalEdgeStyle;rounded=0;orthogonalLoop=1;jettySize=auto;html=1;entryX=0.5;entryY=0;entryDx=0;entryDy=0;" edge="1" parent="1" target="abNxcvN-tdBCpLds650j-7">
          <mxGeometry relative="1" as="geometry">
            <mxPoint x="120" y="362.4867441860465" as="sourcePoint" />
            <mxPoint x="50" y="107.51" as="targetPoint" />
            <Array as="points">
              <mxPoint x="90" y="363" />
              <mxPoint x="90" y="140" />
              <mxPoint x="527" y="140" />
            </Array>
          </mxGeometry>
        </mxCell>
        <mxCell id="abNxcvN-tdBCpLds650j-51" value="Отзыв" style="rounded=1;whiteSpace=wrap;html=1;" vertex="1" parent="1">
          <mxGeometry x="120" y="350" width="85" height="30" as="geometry" />
        </mxCell>
      </root>
    </mxGraphModel>
  </diagram>
</mxfile>
